<?xml version="1.0" standalone="no"?><!DOCTYPE svg PUBLIC "-//W3C//DTD SVG 1.1//EN" "http://www.w3.org/Graphics/SVG/1.1/DTD/svg11.dtd"><svg t="1648627407288" class="icon" viewBox="0 0 1051 1024" version="1.1" xmlns="http://www.w3.org/2000/svg" p-id="27050" xmlns:xlink="http://www.w3.org/1999/xlink" width="205.2734375" height="200"><defs><style type="text/css">@font-face { font-family: feedback-iconfont; src: url("//at.alicdn.com/t/font_1031158_u69w8yhxdu.woff2?t=1630033759944") format("woff2"), url("//at.alicdn.com/t/font_1031158_u69w8yhxdu.woff?t=1630033759944") format("woff"), url("//at.alicdn.com/t/font_1031158_u69w8yhxdu.ttf?t=1630033759944") format("truetype"); }
</style></defs><path d="M1007.342414 623.743985a474.209488 474.209488 0 0 0-51.230388-312.636727l-67.431451 36.780792a397.144973 397.144973 0 0 1 43.786657 257.465539 104.212242 104.212242 0 0 0-69.182917 169.45436 405.026571 405.026571 0 0 1-736.49156-233.382878v-31.964259a104.650109 104.650109 0 0 0 56.484787-172.519426A406.340171 406.340171 0 0 1 431.547883 149.09663a105.525842 105.525842 0 1 0-3.502932-78.378115A481.65322 481.65322 0 0 0 114.094624 301.912061h-8.757331a105.087975 105.087975 0 0 0-53.419721 195.726354c0 14.887463-2.189333 29.33706-2.189332 43.786656a481.65322 481.65322 0 0 0 880.111792 271.477269A105.087975 105.087975 0 0 0 1007.342414 623.743985z" p-id="27051" fill="#bfbfbf"></path><path d="M524.813461 545.36587m-228.566346 0a228.566346 228.566346 0 1 0 457.132692 0 228.566346 228.566346 0 1 0-457.132692 0Z" p-id="27052" fill="#bfbfbf"></path></svg>