<?xml version="1.0" standalone="no"?><!DOCTYPE svg PUBLIC "-//W3C//DTD SVG 1.1//EN" "http://www.w3.org/Graphics/SVG/1.1/DTD/svg11.dtd"><svg t="1648627226093" class="icon" viewBox="0 0 1024 1024" version="1.1" xmlns="http://www.w3.org/2000/svg" p-id="23137" xmlns:xlink="http://www.w3.org/1999/xlink" width="200" height="200"><defs><style type="text/css">@font-face { font-family: feedback-iconfont; src: url("//at.alicdn.com/t/font_1031158_u69w8yhxdu.woff2?t=1630033759944") format("woff2"), url("//at.alicdn.com/t/font_1031158_u69w8yhxdu.woff?t=1630033759944") format("woff"), url("//at.alicdn.com/t/font_1031158_u69w8yhxdu.ttf?t=1630033759944") format("truetype"); }
</style></defs><path d="M488.207059 492.122353a54.512941 54.512941 0 0 1-12.047059 0l-153.6-35.538824v187.934118c0 20.178824 55.115294 55.115294 165.647059 55.115294s165.948235-34.936471 165.948235-55.115294v-189.138823l-153.6 35.237647a43.369412 43.369412 0 0 1-12.348235 1.505882z" p-id="23138" fill="#bfbfbf"></path><path d="M512 0a512 512 0 1 0 512 512A512 512 0 0 0 512 0z m234.315294 786.974118a37.044706 37.044706 0 0 1-37.044706-36.74353c0-20.48 16.564706-73.788235 37.044706-73.788235S783.058824 729.750588 783.058824 750.230588a36.743529 36.743529 0 0 1-36.74353 36.74353z m-18.672941-147.275294v-165.948236a18.672941 18.672941 0 0 1 37.044706 0v165.948236a18.672941 18.672941 0 0 1-37.044706 0z m12.649412-204.197648l-49.392941 11.444706v196.367059c0 48.790588-56.018824 92.16-202.691765 92.16S285.515294 692.705882 285.515294 643.312941v-196.367059l-49.091765-11.444706a55.416471 55.416471 0 0 1 0-107.821176l240.941177-55.115294a44.574118 44.574118 0 0 1 10.842353-1.505882 57.223529 57.223529 0 0 1 12.348235 0l240.941177 55.41647a55.416471 55.416471 0 0 1 0 107.821177z" p-id="23139" fill="#bfbfbf"></path><path d="M731.858824 363.52l-239.435295-55.115294h-8.432941l-240.941176 55.115294a18.672941 18.672941 0 0 0-14.155294 18.070588 18.371765 18.371765 0 0 0 14.155294 18.070588l240.941176 55.115295h8.432941l240.941177-55.115295a18.672941 18.672941 0 0 0 14.45647-18.070588 18.974118 18.974118 0 0 0-15.962352-18.070588z" p-id="23140" fill="#bfbfbf"></path></svg>